<mxfile host="app.diagrams.net" modified="2024-05-27T13:50:26.570Z" agent="Mozilla/5.0 (Windows NT 10.0; Win64; x64) AppleWebKit/537.36 (KHTML, like Gecko) Chrome/124.0.0.0 Safari/537.36" etag="xl9NqgqEqBtGFCbd2EIq" version="24.4.9" type="device">
  <diagram name="Page-1" id="ve4o18Rr6GOUPG3nW9y-">
    <mxGraphModel dx="1247" dy="762" grid="1" gridSize="10" guides="1" tooltips="1" connect="1" arrows="1" fold="1" page="1" pageScale="1" pageWidth="827" pageHeight="1169" math="0" shadow="0">
      <root>
        <mxCell id="0" />
        <mxCell id="1" parent="0" />
        <mxCell id="_f0deJ1TEBxTlyUWa4S5-20" value="Key" style="swimlane;childLayout=stackLayout;horizontal=1;startSize=50;horizontalStack=0;rounded=1;fontSize=14;fontStyle=0;strokeWidth=2;resizeParent=0;resizeLast=1;shadow=0;dashed=0;align=center;arcSize=4;whiteSpace=wrap;html=1;" vertex="1" parent="1">
          <mxGeometry x="20" y="330" width="160" height="120" as="geometry" />
        </mxCell>
        <mxCell id="_f0deJ1TEBxTlyUWa4S5-21" value="- id : int&lt;div&gt;- name: string&lt;/div&gt;&lt;div&gt;- price: double&lt;/div&gt;" style="align=left;strokeColor=none;fillColor=none;spacingLeft=4;fontSize=12;verticalAlign=top;resizable=0;rotatable=0;part=1;html=1;" vertex="1" parent="_f0deJ1TEBxTlyUWa4S5-20">
          <mxGeometry y="50" width="160" height="70" as="geometry" />
        </mxCell>
        <mxCell id="_f0deJ1TEBxTlyUWa4S5-22" value="Case" style="swimlane;childLayout=stackLayout;horizontal=1;startSize=50;horizontalStack=0;rounded=1;fontSize=14;fontStyle=0;strokeWidth=2;resizeParent=0;resizeLast=1;shadow=0;dashed=0;align=center;arcSize=4;whiteSpace=wrap;html=1;" vertex="1" parent="1">
          <mxGeometry x="254" y="190" width="160" height="120" as="geometry" />
        </mxCell>
        <mxCell id="_f0deJ1TEBxTlyUWa4S5-23" value="- id : int&lt;div&gt;- name : string&lt;/div&gt;&lt;div&gt;- price : double&lt;/div&gt;&lt;div&gt;- keys : Array(int)&lt;/div&gt;" style="align=left;strokeColor=none;fillColor=none;spacingLeft=4;fontSize=12;verticalAlign=top;resizable=0;rotatable=0;part=1;html=1;" vertex="1" parent="_f0deJ1TEBxTlyUWa4S5-22">
          <mxGeometry y="50" width="160" height="70" as="geometry" />
        </mxCell>
        <mxCell id="_f0deJ1TEBxTlyUWa4S5-24" value="" style="endArrow=none;html=1;rounded=0;exitX=0.5;exitY=0;exitDx=0;exitDy=0;entryX=0;entryY=0.25;entryDx=0;entryDy=0;" edge="1" parent="1" source="_f0deJ1TEBxTlyUWa4S5-20" target="_f0deJ1TEBxTlyUWa4S5-22">
          <mxGeometry width="50" height="50" relative="1" as="geometry">
            <mxPoint x="160" y="250" as="sourcePoint" />
            <mxPoint x="210" y="200" as="targetPoint" />
          </mxGeometry>
        </mxCell>
        <mxCell id="_f0deJ1TEBxTlyUWa4S5-25" value="Skin" style="swimlane;childLayout=stackLayout;horizontal=1;startSize=50;horizontalStack=0;rounded=1;fontSize=14;fontStyle=0;strokeWidth=2;resizeParent=0;resizeLast=1;shadow=0;dashed=0;align=center;arcSize=4;whiteSpace=wrap;html=1;" vertex="1" parent="1">
          <mxGeometry x="580" y="190" width="160" height="340" as="geometry" />
        </mxCell>
        <mxCell id="_f0deJ1TEBxTlyUWa4S5-26" value="- id : int&lt;div&gt;- name : string&lt;/div&gt;&lt;div&gt;- price : double&lt;/div&gt;&lt;div&gt;- float : double&lt;/div&gt;&lt;div&gt;- aquiredDate : Date&lt;/div&gt;&lt;div&gt;- pattern : Pattern&lt;/div&gt;" style="align=left;strokeColor=none;fillColor=none;spacingLeft=4;fontSize=12;verticalAlign=top;resizable=0;rotatable=0;part=1;html=1;" vertex="1" parent="_f0deJ1TEBxTlyUWa4S5-25">
          <mxGeometry y="50" width="160" height="290" as="geometry" />
        </mxCell>
        <mxCell id="_f0deJ1TEBxTlyUWa4S5-32" value="Pattern" style="swimlane;childLayout=stackLayout;horizontal=1;startSize=50;horizontalStack=0;rounded=1;fontSize=14;fontStyle=0;strokeWidth=2;resizeParent=0;resizeLast=1;shadow=0;dashed=0;align=center;arcSize=4;whiteSpace=wrap;html=1;" vertex="1" parent="1">
          <mxGeometry x="667" y="340" width="73" height="120" as="geometry" />
        </mxCell>
        <mxCell id="_f0deJ1TEBxTlyUWa4S5-33" value="- id : int&lt;div&gt;- pattern : int&lt;/div&gt;" style="align=left;strokeColor=none;fillColor=none;spacingLeft=4;fontSize=12;verticalAlign=top;resizable=0;rotatable=0;part=1;html=1;" vertex="1" parent="_f0deJ1TEBxTlyUWa4S5-32">
          <mxGeometry y="50" width="73" height="70" as="geometry" />
        </mxCell>
        <mxCell id="_f0deJ1TEBxTlyUWa4S5-34" value="" style="endArrow=none;html=1;rounded=0;entryX=1;entryY=0.25;entryDx=0;entryDy=0;exitX=-0.006;exitY=0.031;exitDx=0;exitDy=0;exitPerimeter=0;" edge="1" parent="1" source="_f0deJ1TEBxTlyUWa4S5-25" target="_f0deJ1TEBxTlyUWa4S5-22">
          <mxGeometry width="50" height="50" relative="1" as="geometry">
            <mxPoint x="570" y="260" as="sourcePoint" />
            <mxPoint x="490" y="360" as="targetPoint" />
          </mxGeometry>
        </mxCell>
      </root>
    </mxGraphModel>
  </diagram>
</mxfile>
